<?xml version="1.0" encoding="utf-8"?>
<!-- Generator: Adobe Illustrator 24.0.1, SVG Export Plug-In . SVG Version: 6.00 Build 0)  -->
<svg version="1.1" id="Calque_1" xmlns:serif="http://www.serif.com/"
	 xmlns="http://www.w3.org/2000/svg" xmlns:xlink="http://www.w3.org/1999/xlink" x="0px" y="0px" viewBox="0 0 595.3 594.1"
	 style="enable-background:new 0 0 595.3 594.1;" xml:space="preserve">
<style type="text/css">
	.st0{fill:#030404;}
</style>
<g transform="matrix(1.01619,0,0,1.01619,44,43.8384)">
	<path d="M249.6-43.1c-79.4,0-89.3,0.3-120.5,1.8C98-40,76.7-35,58.1-27.8C38.9-20.3,22.6-10.3,6.3,5.9s-26.2,32.6-33.7,51.8
		c-7.2,18.6-12.2,39.8-13.6,71c-1.4,31.2-1.8,41.1-1.8,120.5c0,79.4,0.3,89.3,1.8,120.5c1.4,31.1,6.4,52.4,13.6,71
		c7.5,19.2,17.5,35.5,33.7,51.8c16.3,16.3,32.6,26.2,51.8,33.7c18.6,7.2,39.8,12.2,71,13.6c31.2,1.4,41.1,1.8,120.5,1.8
		c79.4,0,89.3-0.3,120.5-1.8c31.1-1.4,52.4-6.4,71-13.6c19.2-7.5,35.5-17.5,51.8-33.7c16.3-16.3,26.2-32.6,33.7-51.8
		c7.2-18.6,12.2-39.8,13.6-71c1.4-31.2,1.8-41.1,1.8-120.5c0-79.4-0.3-89.3-1.8-120.5c-1.4-31.1-6.4-52.4-13.6-71
		c-7.5-19.2-17.5-35.5-33.7-51.8c-16.3-16.3-32.6-26.2-51.8-33.7c-18.6-7.2-39.8-12.2-71-13.6C338.9-42.8,329-43.1,249.6-43.1z
		 M249.6,9.5c78.1,0,87.3,0.3,118.1,1.7c28.5,1.3,44,6.1,54.3,10.1c13.6,5.3,23.4,11.6,33.6,21.9c10.2,10.2,16.6,20,21.9,33.6
		c4,10.3,8.8,25.8,10.1,54.3c1.4,30.8,1.7,40.1,1.7,118.1c0,78.1-0.3,87.3-1.7,118.1c-1.3,28.5-6.1,44-10.1,54.3
		c-5.3,13.6-11.6,23.4-21.9,33.6c-10.2,10.2-20,16.6-33.6,21.9c-10.3,4-25.8,8.8-54.3,10.1c-30.8,1.4-40.1,1.7-118.1,1.7
		c-78.1,0-87.3-0.3-118.1-1.7c-28.5-1.3-44-6.1-54.3-10.1c-13.6-5.3-23.4-11.6-33.6-21.9c-10.2-10.2-16.6-20-21.9-33.6
		c-4-10.3-8.8-25.8-10.1-54.3c-1.4-30.8-1.7-40.1-1.7-118.1c0-78.1,0.3-87.3,1.7-118.1c1.3-28.5,6.1-44,10.1-54.3
		C27,63.1,33.4,53.4,43.6,43.2c10.2-10.2,20-16.6,33.6-21.9c10.3-4,25.8-8.8,54.3-10.1C162.3,9.8,171.5,9.5,249.6,9.5z"/>
	<path class="st0" d="M249.6,346.6c-53.8,0-97.4-43.6-97.4-97.4c0-53.8,43.6-97.4,97.4-97.4c53.8,0,97.4,43.6,97.4,97.4
		C347,303,303.4,346.6,249.6,346.6z M249.6,99.1c-82.9,0-150.1,67.2-150.1,150.1c0,82.9,67.2,150.1,150.1,150.1
		c82.9,0,150.1-67.2,150.1-150.1C399.7,166.3,332.5,99.1,249.6,99.1z"/>
	<path class="st0" d="M440.7,93.1c0,19.4-15.7,35.1-35.1,35.1c-19.4,0-35.1-15.7-35.1-35.1s15.7-35.1,35.1-35.1
		C425,58.1,440.7,73.8,440.7,93.1z"/>
</g>
</svg>
