<svg id="Calque_1" data-name="Calque 1" xmlns="http://www.w3.org/2000/svg" viewBox="0 0 142.38 316.86"><defs><style>.cls-1{opacity:0.25;}.cls-2{fill:#fff;}</style></defs><g id="Groupe_34" data-name="Groupe 34" class="cls-1"><path id="Tracé_10" data-name="Tracé 10" class="cls-2" d="M72.54,317c-10-15.26-19.51-30.78-28.39-46.59-4.39-7.92-8.69-15.91-12.27-24.16s-7.24-16.54-8.82-25.19c-2.16-8.57-.31-17.06,4.25-24.9,4.32-7.83,10-15,15.6-22.19,11.24-14.26,23-28.65,29.63-46.18,2.73-8.8,5-18.17,4.07-27.57-.43-9.45-2.92-18.62-5.8-27.26S64.54,55.62,61,47.21c-3.25-8.3-7.9-16.87-7.62-24.51.59-7,10-11.26,18-13.9A76.7,76.7,0,0,1,97.37,4.53c8.86.19,17.93,1,26.17,4.3,8.25,2.83,15.93,9.34,16.4,18.71h.58c.47-9.6-7.26-17.92-15.84-21.35C116.11,2.26,106.78.63,97.49.09A81.8,81.8,0,0,0,69.68,3.57,48.68,48.68,0,0,0,56.46,9.29c-4,2.57-8.51,6.9-9,12.9-.18,10.84,4.65,19,8,27.36,3.71,8.3,7.19,16.62,10.19,25.14s5.7,17.08,6.54,25.82c1.31,8.81-.47,17.69-2.69,26.29-5.44,17.15-16.5,32.07-28.22,45.93-5.71,7.1-11.71,14-16.78,21.84a49.23,49.23,0,0,0-5.84,12.9,37.23,37.23,0,0,0-.31,14.42c3.53,18.69,12.81,34.9,22,50.7a390.57,390.57,0,0,0,31.7,44.74Z"/><path id="Tracé_11" data-name="Tracé 11" class="cls-2" d="M142.15,41.92c-17.85,3.51-35.7,6.64-53.58,8.27s-35.86,2-52.57-2.82c-2.34-.63-4.72-1.07-7.06-1.59a71.65,71.65,0,0,0-7.47-.3c-2.48,0-5,1-7.51,1.52-2.2,1.36-4.79,2.4-6.42,4.39-7.06,7.87-7.6,18-7.82,27,.42,18.44,4,36.45,8.13,54.24,1.91,9.57,8.8,18,16.44,23.3,7.62,5.65,15.8,10,23.7,14.34s15.62,8.83,21.4,14.65,8.68,12.9,7.43,20.77c-.38,3.64-1.57,8.53-2.51,13.11a121.71,121.71,0,0,0-1.58,14,178.4,178.4,0,0,0,.79,27.83c2.08,18.39,7,36.17,13.11,53.3l.84-.19c-7.25-35.86-11.59-71.49-1.61-106.87,1.86-10.21-2.69-21.75-10.24-28.3-7.34-6.82-15.75-11.12-23.85-15.37s-16.29-8-23.56-12.76-13.4-10.67-15.86-19.06c-5.42-17.13-10.16-35-9.69-52.95.2-8.74,2.05-18.29,8.12-23.59S26,51.24,33.87,54.09c18.15,6.26,37.43,5,55.47,2.59a253.75,253.75,0,0,0,53-14Z"/></g></svg>