<?xml version="1.0" encoding="utf-8"?>
<!-- Generator: Adobe Illustrator 25.2.0, SVG Export Plug-In . SVG Version: 6.00 Build 0)  -->
<svg version="1.1" id="Layer_1" xmlns="http://www.w3.org/2000/svg" xmlns:xlink="http://www.w3.org/1999/xlink" x="0px" y="0px"
	 viewBox="0 0 146.2 426.3" style="enable-background:new 0 0 146.2 426.3;" xml:space="preserve">
<style type="text/css">
	.st0{fill:#FFFFFF;enable-background:new    ;}
	.st1{opacity:0.25;fill:#EEB30F;enable-background:new    ;}
	.st2{opacity:0.37;fill:#EEB30F;enable-background:new    ;}
	.st3{fill:#FFFFFF;}
	.st4{fill:#1D1D1B;}
</style>
<path class="st0" d="M128,55.7c5.3-16.7,0.9-26.9-6-34.5c-6.1-6.8-29.9-6.1-51.2-3.9c-8-0.8-18.5,0-26.3,3.5
	c-6.7,1-10.9,1.8-10.9,1.8C33,30.9,32.5,38.3,32,45.2l0,0v0.4c-2.7,39.5-2.7,58.3,1.3,85.6v0.2l0.1,0.2c0.3,2,0.6,4,1,6.1
	c1.9,11.9,7,27.8,13,43.7l3.8,13.7c0,0,16.8,44.3,19.5,41.8c2.6,5.7,4.3,9.1,4.3,9.1c1.8-3.7,3.3-7.2,4.8-10.7
	c0.5,1.1,1,2.2,1.6,3.4c0,0,37.2-49.6,36.9-73c-0.1-10.6-10.1-21.1-19.9-33.5c11.5-6,23.4-11.9,26.5-22.5
	C129.1,93.9,135.1,67.7,128,55.7z"/>
<path class="st1" d="M74.8,246c42-88-13.5-96.1,25-143.7s34.1-68.1,22.2-81.1s-88.5,1.4-88.5,1.4c-4.4,59.9-5.2,79,0.7,115.1
	S74.8,246,74.8,246z"/>
<path class="st2" d="M106.6,51.3c34.8-11.9,24.7,34.9,18,58.4S67,133.4,75.3,164s-3,65.7-4.6,72.4S51,195.1,51,195.1l-17.8-63.8
	l-1.3-86.2C31.9,45.2,80.7,60.2,106.6,51.3z"/>
<path class="st1" d="M81.1,238.7c0,0,37.2-49.6,36.9-73s-49.1-47-36.6-90.2c6.8-23.7,15.2-34.7,15.2-43.7S81.9,19.3,75.6,18
	c-13.4-3-42.3-0.1-42.3,16.8c-0.1,23.1,0.2,43.6,1.9,59.9C38.7,130.3,43.5,158.7,81.1,238.7z"/>
<path class="st3" d="M81,238.6c1.8-2.7,3.6-5.3,5.3-8c1.7-2.7,3.4-5.4,5.2-8.1c3.4-5.4,6.7-10.9,9.8-16.5c1.6-2.8,3.1-5.6,4.6-8.4
	c1.5-2.8,2.9-5.7,4.2-8.6c2.6-5.8,5-11.7,6.2-17.8c0.7-3,0.8-6.1,0.3-9.1c-0.7-3-1.8-6-3.4-8.6c-3.3-5.5-7-10.7-11.1-15.6
	c-4-5-8-10-11.7-15.4c-1.8-2.7-3.5-5.4-5.1-8.2c-1.5-2.9-2.9-5.8-4-8.9s-1.9-6.3-2.4-9.5l-0.2-1.2l-0.1-1.2L78.4,91v-3.7l0.1-1.2
	l0.2-2.5c0.1-0.8,0.2-1.6,0.3-2.4c0.2-1.6,0.6-3.2,1-4.8c0.8-3.2,1.8-6.2,2.8-9.3c2-6.1,4.4-12.2,7-18.1c1.2-3,2.5-5.9,3.6-8.8
	c0.3-0.7,0.5-1.5,0.8-2.2c0.2-0.7,0.4-1.5,0.6-2.2s0.2-1.5,0.4-2.2c0-0.7,0-1.4,0-2.1c-0.2-2.6-2.2-4.8-4.6-6.4
	c-2.6-1.6-5.4-2.9-8.4-3.8c-1.5-0.5-3-0.9-4.5-1.3s-3.1-0.8-4.6-1c-3.1-0.5-6.2-0.7-9.4-0.6c-6.3,0-12.6,1-18.5,3.2
	c-2.9,1.1-5.6,2.8-7.8,5c-2.2,2.3-3.5,5.3-3.6,8.4h-0.3c0-1.6,0.2-3.3,0.7-4.8c0.5-1.6,1.4-3,2.5-4.3s2.3-2.4,3.6-3.3
	c1.4-0.9,2.8-1.7,4.3-2.4c3-1.3,6.1-2.3,9.4-2.9c3.2-0.7,6.5-1.1,9.7-1.2c3.3-0.1,6.6,0,9.8,0.4c1.7,0.2,3.3,0.5,4.9,0.9
	s3.2,0.8,4.8,1.2c3.2,0.9,6.3,2.2,9.2,4c1.5,0.9,2.9,2.1,4,3.5c1.2,1.5,1.9,3.3,2.1,5.2c0.1,0.9,0,1.8-0.1,2.7
	c-0.2,0.8-0.2,1.7-0.4,2.5s-0.4,1.7-0.7,2.5s-0.5,1.6-0.8,2.3c-1.1,3.1-2.4,6-3.7,9c-2.6,5.9-5,11.7-7.2,17.7c-1,3-2,6.1-2.9,9.1
	c-0.4,1.5-0.8,3-1.1,4.6c-0.1,0.8-0.3,1.5-0.4,2.3L81,86.3l-0.1,1.2v1.2L80.8,91l0.1,2.3l0.1,1.2l0.1,1.2c0.4,3.1,1,6.2,2,9.2
	s2.2,6,3.6,8.8s3,5.6,4.8,8.3c3.6,5.3,7.5,10.4,11.6,15.3c2,2.5,4.1,4.9,6.1,7.5c2,2.5,3.9,5.2,5.7,7.9c1.8,2.8,3.1,5.8,4,9
	c0.4,1.6,0.6,3.3,0.6,5c0,0.8,0,1.7-0.1,2.5s-0.2,1.7-0.3,2.5c-0.6,3.2-1.4,6.4-2.5,9.5s-2.3,6.1-3.7,9c-2.7,5.8-5.8,11.6-9.1,17.1
	c-6.6,11-14,21.6-22.1,31.7L81,238.6z"/>
<path class="st3" d="M31.9,44.9c12.6,2.5,25.1,4.7,37.8,5.8s25.3,1.5,37-2c0.8-0.2,1.6-0.5,2.4-0.7l2.5-0.5c1.7-0.3,3.5-0.3,5.2-0.2
	c1.8,0.1,3.6,0.5,5.3,1.1c0.4,0.2,0.8,0.4,1.2,0.6c0.4,0.2,0.8,0.4,1.2,0.7c0.8,0.5,1.5,1.1,2.1,1.8c1.2,1.3,2.3,2.8,3,4.4
	c0.7,1.6,1.2,3.2,1.6,4.8c0.7,3.2,0.9,6.5,0.9,9.8c-0.1,6.5-0.7,12.9-1.9,19.3c-1.1,6.4-2.3,12.7-3.8,19l-0.3,1.2
	c-0.1,0.4-0.2,0.8-0.4,1.2l-0.4,1.2c-0.2,0.4-0.3,0.8-0.5,1.2s-0.3,0.8-0.6,1.2l-0.7,1.1c-0.4,0.8-0.9,1.5-1.4,2.2
	c-2.1,2.7-4.5,5.1-7.3,7.1c-5.4,4-11.2,7-16.7,10.1c-2.8,1.5-5.5,3.1-8.1,4.8c-2.5,1.6-4.9,3.4-7,5.5c-2,1.9-3.5,4.2-4.6,6.7
	c-0.9,2.5-1.2,5.2-0.8,7.9c0.1,0.7,0.2,1.4,0.4,2.1l0.2,1.1l0.3,1.2c0.4,1.6,0.7,3.2,1,4.9l0.7,4.9c0.1,0.8,0.2,1.6,0.2,2.5l0.2,2.5
	c0,0.8,0.1,1.6,0.1,2.5v2.5c0,1.6,0.1,3.3,0,4.9s-0.1,3.3-0.3,4.9l-0.4,4.9c-1.6,12.8-4.7,25.4-9.3,37.5l-0.6-0.1
	c0.5-3.2,1.2-6.3,1.7-9.5s1.1-6.3,1.5-9.4c0.9-6.3,1.6-12.6,1.8-18.9l0.1-4.7c0-1.6,0-3.1-0.1-4.7s-0.1-3.1-0.2-4.7l-0.2-2.3
	c0-0.8-0.2-1.5-0.2-2.3c-0.2-1.5-0.3-3.1-0.6-4.6l-0.8-4.6l-1.1-4.5l-0.6-2.4c-0.2-0.9-0.4-1.8-0.5-2.6c-0.6-3.7-0.2-7.5,1.1-11
	c1.4-3.4,3.5-6.5,6.2-9c5.2-4.8,11.1-7.9,16.8-10.8s11.5-5.6,16.6-9c2.5-1.6,4.9-3.5,6.9-5.7c0.5-0.5,1-1.1,1.4-1.7l0.6-0.9
	c0.2-0.3,0.3-0.6,0.5-0.9s0.4-0.6,0.5-1l0.4-1c0.1-0.3,0.3-0.7,0.4-1l0.4-1.1c2-6,3.7-12.2,5-18.4c1.4-6.2,2-12.5,1.9-18.9
	c-0.1-3.1-0.5-6.2-1.3-9.2c-0.4-1.4-1-2.8-1.7-4.2c-0.7-1.2-1.6-2.3-2.7-3.3c-1-0.8-2.2-1.5-3.5-1.9s-2.7-0.5-4.1-0.5
	c-3,0.2-5.9,0.8-8.6,1.9l-2.3,0.8l-1.2,0.4l-1.2,0.3c-1.6,0.4-3.3,0.8-4.9,1c-3.3,0.5-6.6,0.8-9.9,0.8c-6.5,0.1-13-0.4-19.5-1.4
	c-3.2-0.5-6.4-1-9.6-1.7s-6.3-1.4-9.4-2.2c-6.2-1.6-12.4-3.6-18.4-6L31.9,44.9z"/>
<path class="st4" d="M66.3,411.5l0.3-55.2l-1.3-56.2c0,0-0.1-18.8-0.6-28.1l-0.4-7l-0.2-3.5l-0.2-2.9c-0.5-3.8,0.6-7.6-0.7-11.5
	c-2.5-7.9-6.6-16.1-10.5-24.6s-8-17.3-11.4-26.4c-7.1-18.2-14-37.5-16.4-56.9c-1.2-9.7-1.9-19.4-2.1-29.2c-0.1-9.9,0.2-19,0.4-28.4
	c0.6-18.8,1.5-17.7,3.4-36.5c1-9.4,4.2-25.3,5.6-28s5.6-1.2,5.7,0.2c0.3,9.3,1.1,18.7,1.7,28l3.8,36L45,109c0.7,9,1.6,18,3,26.9
	s3.2,17.6,5.4,26.3s5,17.1,8.1,25.6s6.6,16.9,10.3,25.5S79.2,230.9,82,241c1.4,5.3,2.3,10.7,2.6,16.1l0.1,4.1l-0.1,3.5l-0.2,7
	c-0.2,9.4-8.1,139.5-8.1,139.5L66.3,411.5z"/>
<path class="st4" d="M29.9,29.7c0,0,1.3-13.5,3.8-14c4.3-1.2,41,0.2,41,0.2S36.5,17.8,44,22.3c3,2.6,18,4.2,18,4.2l-25.3,1.6
	L29.9,29.7"/>
<ellipse transform="matrix(2.844485e-02 -0.9996 0.9996 2.844485e-02 -339.0581 473.1913)" class="st4" cx="73.9" cy="411" rx="7.2" ry="57.4"/>
</svg>
