<svg id="Calque_1" data-name="Calque 1" xmlns="http://www.w3.org/2000/svg" viewBox="0 0 595.3 594.1"><defs><style>.cls-1{fill:#fff;}</style></defs><title>preambule_card_Plan de travail 1</title><path class="cls-1" d="M297.64,0C217,0,206.9.35,175.19,1.87c-31.6,1.32-53.25,6.4-72.15,13.72A147.41,147.41,0,0,0,50.4,49.83C33.84,66.3,23.78,83,16.16,102.47c-7.32,18.9-12.4,40.45-13.82,72.15S.51,216.39.51,297.07s.3,90.75,1.83,122.45,6.5,53.25,13.82,72.15A147.32,147.32,0,0,0,50.4,544.31C67,560.88,83.53,570.94,103,578.56c18.9,7.31,40.44,12.4,72.15,13.82s41.77,1.83,122.45,1.83,90.75-.31,122.45-1.83,53.25-6.51,72.15-13.82a147.35,147.35,0,0,0,52.64-34.25c16.56-16.56,26.62-33.13,34.25-52.64,7.31-18.9,12.39-40.44,13.82-72.15s1.82-41.76,1.82-122.45-.3-90.74-1.82-122.45-6.51-53.25-13.82-72.15a147.58,147.58,0,0,0-34.25-52.64c-16.56-16.56-33.13-26.62-52.64-34.24-18.9-7.32-40.44-12.4-72.15-13.82S378.33,0,297.64,0Zm0,53.45c79.37,0,88.71.31,120,1.73,29,1.32,44.72,6.2,55.18,10.26,13.82,5.39,23.78,11.79,34.15,22.26a92.58,92.58,0,0,1,22.25,34.14c4.07,10.47,8.94,26.22,10.26,55.18,1.43,31.3,1.73,40.75,1.73,120s-.3,88.72-1.73,120c-1.32,29-6.19,44.72-10.26,55.18C523.84,486.08,517.44,496,507,506.41a92.58,92.58,0,0,1-34.15,22.25c-10.46,4.07-26.22,9-55.18,10.27-31.3,1.42-40.75,1.72-120,1.72s-88.71-.3-120-1.72c-29-1.32-44.71-6.2-55.18-10.27-13.82-5.38-23.78-11.79-34.14-22.25a92.6,92.6,0,0,1-22.26-34.15C62,461.8,57.11,446.05,55.79,417.08c-1.42-31.29-1.73-40.74-1.73-120s.31-88.71,1.73-120c1.32-29,6.2-44.71,10.26-55.18A91.68,91.68,0,0,1,88.31,87.74a92.48,92.48,0,0,1,34.14-22.26c10.47-4.06,26.22-8.94,55.18-10.26C208.93,53.8,218.28,53.49,297.64,53.49Z"/><path class="cls-1" d="M297.64,396.05a99,99,0,1,1,99-99A99,99,0,0,1,297.64,396.05Zm0-251.51A152.53,152.53,0,1,0,450.17,297.07,152.53,152.53,0,0,0,297.64,144.54Z"/><path class="cls-1" d="M491.83,138.45a35.67,35.67,0,1,1-35.66-35.67A35.64,35.64,0,0,1,491.83,138.45Z"/></svg>