<svg id="Layer_1" data-name="Layer 1" xmlns="http://www.w3.org/2000/svg" viewBox="0 0 146.25 426.28"><defs><style>.cls-1,.cls-2,.cls-3{fill:#eeb30f;}.cls-1{opacity:0.75;}.cls-2{opacity:0.65;}.cls-3{opacity:0.55;}.cls-4{fill:#fff;}</style></defs><title>preambule_card_logo</title><path class="cls-1" d="M72.15,246c42-88-13.48-96.1,25-143.66S131.2,34.2,119.37,21.19s-88.51,1.36-88.51,1.36c-4.41,59.92-5.18,79,.71,115.14S72.15,246,72.15,246Z"/><path class="cls-2" d="M104,51.3c34.75-11.92,24.7,34.91,18,58.38S64.39,133.43,72.72,164s-3.06,65.69-4.59,72.35-19.7-41.26-19.7-41.26L30.58,131.34,29.25,45.15S78.11,60.17,104,51.3Z"/><path class="cls-3" d="M78.51,238.69s37.16-49.58,36.89-73S66.33,118.74,78.79,75.51C85.63,51.81,94,40.81,94,31.84S79.28,19.32,73,18C59.63,15,30.77,17.91,30.69,34.75c-.11,23.07.23,43.56,1.87,59.93C36.11,130.26,40.89,158.72,78.51,238.69Z"/><path class="cls-4" d="M78.39,238.6q2.69-4,5.31-8c1.74-2.7,3.44-5.42,5.15-8.13,3.39-5.44,6.69-10.92,9.82-16.5,1.58-2.78,3.09-5.59,4.56-8.43s2.86-5.69,4.19-8.59c2.57-5.8,5-11.72,6.2-17.84a22.74,22.74,0,0,0,.26-9.1,30.76,30.76,0,0,0-3.43-8.65,121.38,121.38,0,0,0-11.08-15.6c-4-5-8-10-11.68-15.36-1.83-2.66-3.51-5.42-5.1-8.24a68,68,0,0,1-4-8.88,50.62,50.62,0,0,1-2.42-9.49L76,94.54l-.11-1.22-.22-2.46v-3.7l.09-1.23.18-2.46c.09-.82.24-1.63.36-2.44a46.45,46.45,0,0,1,1-4.83C78.05,73,79,70,80,66.88c2-6.14,4.43-12.17,7-18.08,1.23-3,2.52-5.89,3.6-8.83.26-.74.53-1.47.74-2.21a22.47,22.47,0,0,0,.6-2.2c.21-.73.25-1.46.39-2.19s.12-1.49.06-2.09c-.16-2.57-2.15-4.81-4.64-6.42a35.94,35.94,0,0,0-8.37-3.79q-2.23-.72-4.53-1.29c-1.56-.39-3.06-.76-4.59-1a58.73,58.73,0,0,0-9.39-.64,53.74,53.74,0,0,0-18.54,3.17,22.21,22.21,0,0,0-7.85,5,13,13,0,0,0-3.62,8.45h-.3a14,14,0,0,1,.73-4.83,13.25,13.25,0,0,1,2.47-4.27,19.62,19.62,0,0,1,3.67-3.32,28.42,28.42,0,0,1,4.31-2.41A45.29,45.29,0,0,1,51.07,17a58.79,58.79,0,0,1,9.72-1.18,59.86,59.86,0,0,1,9.82.39c1.65.2,3.28.55,4.85.9s3.18.75,4.76,1.21a35.75,35.75,0,0,1,9.19,4,16,16,0,0,1,4,3.49A9.9,9.9,0,0,1,95.56,31a17.37,17.37,0,0,1-.06,2.72c-.15.84-.22,1.73-.45,2.54a23.82,23.82,0,0,1-.67,2.45c-.23.81-.51,1.58-.79,2.35-1.14,3.09-2.45,6-3.74,9-2.6,5.86-5,11.73-7.15,17.75-1,3-2,6.06-2.88,9.09a43.21,43.21,0,0,0-1.07,4.57c-.13.78-.3,1.54-.41,2.32L78.1,86.1,78,87.27l0,1.18-.06,2.34L78,93.14l.06,1.18.14,1.17a48.16,48.16,0,0,0,2,9.23,65.82,65.82,0,0,0,3.58,8.81,83,83,0,0,0,4.79,8.27,180.64,180.64,0,0,0,11.6,15.32c2,2.48,4.11,4.94,6.1,7.48a83,83,0,0,1,5.66,7.89,31.91,31.91,0,0,1,4,9,19.92,19.92,0,0,1,.6,5,18.86,18.86,0,0,1-.12,2.5,22.22,22.22,0,0,1-.32,2.47,55.4,55.4,0,0,1-2.54,9.5q-1.65,4.6-3.71,9a183.91,183.91,0,0,1-9.14,17.08,287,287,0,0,1-22.06,31.67Z"/><path class="cls-4" d="M29.34,44.86c12.57,2.46,25.15,4.65,37.75,5.83s25.27,1.52,37-2c.81-.23,1.63-.45,2.45-.65l2.54-.45a25.31,25.31,0,0,1,5.24-.25,18,18,0,0,1,5.3,1.14c.42.17.83.4,1.24.61a6.79,6.79,0,0,1,1.2.69,11.93,11.93,0,0,1,2.1,1.77,15.82,15.82,0,0,1,3,4.38,24.19,24.19,0,0,1,1.55,4.85,44.73,44.73,0,0,1,.89,9.81,122.83,122.83,0,0,1-1.87,19.27q-1.59,9.54-3.82,19l-.28,1.18c-.09.39-.24.82-.36,1.24l-.4,1.25c-.16.41-.35.8-.52,1.21s-.36.8-.56,1.19l-.66,1.13a18.09,18.09,0,0,1-1.45,2.16,35.79,35.79,0,0,1-7.31,7.09c-5.36,4-11.17,7-16.72,10.06-2.78,1.53-5.5,3.1-8.08,4.77a44.33,44.33,0,0,0-7,5.51A19.38,19.38,0,0,0,76,152.3a15.81,15.81,0,0,0-.76,7.88,15.4,15.4,0,0,0,.37,2.08l.22,1.06.27,1.22c.36,1.62.73,3.25,1,4.88l.69,4.92a22.51,22.51,0,0,1,.24,2.46l.17,2.47c0,.82.14,1.64.15,2.46l0,2.47c0,1.64.07,3.28,0,4.91s-.1,3.27-.26,4.9l-.44,4.87a167.16,167.16,0,0,1-9.25,37.55l-.59-.13c.53-3.19,1.18-6.32,1.74-9.47s1.08-6.29,1.54-9.43c.9-6.3,1.56-12.6,1.85-18.89l.11-4.72c0-1.57,0-3.14,0-4.7s-.1-3.13-.2-4.68l-.14-2.34c0-.78-.17-1.54-.25-2.32-.21-1.54-.32-3.09-.59-4.61l-.8-4.57L70,166.09l-.57-2.4a20.89,20.89,0,0,1-.52-2.64A21.57,21.57,0,0,1,70,150a24.33,24.33,0,0,1,6.2-9c5.18-4.82,11.11-7.85,16.83-10.8s11.46-5.63,16.6-9a35.75,35.75,0,0,0,6.91-5.74,14.87,14.87,0,0,0,1.37-1.71l.64-.89c.19-.3.35-.63.53-.94s.36-.63.52-1l.41-1c.13-.35.28-.65.41-1l.37-1.14a163.13,163.13,0,0,0,5-18.42,84.86,84.86,0,0,0,1.93-18.89,38.15,38.15,0,0,0-1.33-9.22,21.8,21.8,0,0,0-1.72-4.16,12.2,12.2,0,0,0-2.71-3.27A10,10,0,0,0,118.34,52a14.16,14.16,0,0,0-4.13-.45,27.67,27.67,0,0,0-8.6,1.86l-2.32.77-1.21.39-1.22.33a45.05,45.05,0,0,1-4.93,1,66.15,66.15,0,0,1-9.9.78,119.33,119.33,0,0,1-19.5-1.41c-3.21-.46-6.4-1.05-9.56-1.71s-6.31-1.4-9.43-2.22a160.07,160.07,0,0,1-18.38-6Z"/><path class="cls-4" d="M63.75,411.54,64,356.3l-1.28-56.21s-.12-18.75-.63-28.12l-.37-7-.17-3.52-.25-2.87c-.44-3.77.58-7.6-.74-11.53C58,239.15,54,231,50.13,222.47s-8-17.3-11.43-26.43c-7.06-18.21-14-37.52-16.39-56.95a262.37,262.37,0,0,1-2.06-29.18c-.16-9.86.25-19,.42-28.43.58-18.8,1.52-17.68,3.44-36.55.95-9.43,4.24-25.32,5.56-28s5.59-1.16,5.66.22c.3,9.33,1.08,18.66,1.66,28l3.82,36L42.36,109c.67,9,1.65,18,3,26.85s3.18,17.62,5.43,26.26,5,17.14,8.09,25.58,6.59,16.85,10.29,25.48S76.6,230.77,79.4,240.9A78.19,78.19,0,0,1,82,257l.07,4.15L82,264.63l-.15,7c-.23,9.38-8.11,139.54-8.11,139.54Z"/><path class="cls-4" d="M27.28,29.69s1.27-13.47,3.8-14c4.29-1.25,41,.17,41,.17S33.91,17.78,41.39,22.3c3,2.63,18,4.18,18,4.18L34.08,28.1l-6.8,1.59"/><ellipse class="cls-4" cx="71.25" cy="411.06" rx="7.18" ry="57.4" transform="translate(-341.67 470.59) rotate(-88.37)"/></svg>