<svg id="Layer_1" data-name="Layer 1" xmlns="http://www.w3.org/2000/svg" viewBox="0 0 595.28 841.89"><defs><style>.cls-1{fill:#1d1d1b;}.cls-2{fill:#fff;}.cls-3,.cls-4{fill:#d0a30f;}.cls-3{opacity:0.25;}.cls-4{opacity:0.37;}</style></defs><title>preambule_card_Artboard 1</title><path class="cls-1" d="M264.65,628.78c-.12-8.19,14.79-12.6,40-13,15.16-.23,39.12,5.38,47.48,9-1.69-8.94-24.65-15.7-52.61-15.27-29,.44-52.34,8.44-52.19,17.86.1,6.6,11.74,12.14,28.68,14.72C272.09,639.92,264.7,631.48,264.65,628.78Z"/><path class="cls-2" d="M340,245.48c-7.69-4.57-19.77-5.89-32.38-5.64A73.39,73.39,0,0,0,302,220.1c-10.85-24.63-47.66-17.66-48.9,9.23-1.16,24.93-2,52.79-.92,70.54.27,4.75.57,9.39,1,14a256.54,256.54,0,0,0,3,35.59h0q.44,2.92.94,6c1.85,11.4,6.74,26.59,12.43,41.76L273,409.7s15.87,41.81,18.37,39.44c2.48,5.39,4,8.62,4,8.62s42.45-52,43.21-77.35c.3-10.14-7.78-20.65-16.61-32.55,9.28-4.94,18-10.24,20.43-18.82,4.14-14.47,9.62-38.35,3.78-50C351.91,264.18,352.25,252.79,340,245.48Z"/><path class="cls-1" d="M252,216.45s2-13.62,4.53-14.17,43.21-.72,43.21-.72-36.62,4.87-33.63,7.5,18,4.18,18,4.18l-25.3,1.62-6.8,1.59"/><path class="cls-3" d="M295.37,457.76c39.63-83.06,11.22-97,29.07-134.21S362.66,259,340,245.48s-83.57,1.29-83.57,1.29c-4.16,56.57-4.9,74.56.66,108.72S295.37,457.76,295.37,457.76Z"/><path class="cls-4" d="M325.41,273.92c32.82-11.26,23.32,33,17,55.12s-54.35,22.43-46.49,51.31-2.88,62-4.33,68.32-18.61-39-18.61-39l-16.85-60.21-1.25-81.38S301,282.29,325.41,273.92Z"/><path class="cls-3" d="M301.38,450.86s35.09-46.81,34.83-68.95-46.33-44.31-34.56-85.13c6.45-22.38,3.48-40-3.29-53.58a21.17,21.17,0,0,0-14.65-11.66c-12.67-2.76-27.4,5.84-27.48,21.74-.11,21.79.21,46.14,1.76,61.6C261.35,348.47,265.86,375.35,301.38,450.86Z"/><path class="cls-1" d="M295.47,628.31s-1-37.51-2.72-56.24-3.11-37.48-4.29-56.22c-.63-9.37-1.12-18.74-1.63-28.12l-.37-7-.16-3.51-.25-2.88a58.57,58.57,0,0,0-2.74-11.52c-2.55-7.88-6.57-16.05-10.46-24.56s-8-17.3-11.43-26.42a238.9,238.9,0,0,1-14.38-57A260,260,0,0,1,245,325.68c-.15-9.86.25-18.95.42-28.43.59-18.81,1.52-37.69,3.44-56.55.95-9.44,2.27-18.86,3.82-28.25.44-2.31,1.1-5.16,1.84-8.15a2.75,2.75,0,0,1,5.42.65c0,3.58.08,6.61.15,8,.3,9.33,1.07,18.67,1.65,28l3.82,56,1.56,27.84c.66,9,1.64,18,3,26.85s3.17,17.62,5.43,26.25,5,17.15,8.08,25.59,6.6,16.85,10.3,25.48,7.42,17.61,10.22,27.74a76.87,76.87,0,0,1,2.58,16.05l.07,4.15,0,3.52-.16,7c-.22,9.38-7.11,139.54-7.11,139.54Z"/><circle class="cls-1" cx="313.24" cy="399.44" r="2.76"/><circle class="cls-1" cx="313.24" cy="415.38" r="5.17"/><circle class="cls-1" cx="313.24" cy="431.32" r="2.54"/><circle class="cls-1" cx="285.56" cy="280.76" r="3.66"/><circle class="cls-1" cx="280.22" cy="296.7" r="2.76"/><circle class="cls-1" cx="280.22" cy="312.64" r="5.17"/><circle class="cls-1" cx="280.22" cy="328.57" r="2.76"/><circle class="cls-1" cx="0.24" cy="325.29" r="3.66"/><circle class="cls-1" cx="5.58" cy="341.23" r="5.17"/><circle class="cls-1" cx="0.24" cy="309.35" r="2.76"/><circle class="cls-1" cx="5.58" cy="389.04" r="2.76"/><circle class="cls-1" cx="10.93" cy="373.11" r="5.17"/><circle class="cls-1" cx="10.93" cy="357.17" r="5.17"/><circle class="cls-1" cx="54.82" cy="325.29" r="3.66"/><circle class="cls-1" cx="60.17" cy="341.23" r="5.17"/><circle class="cls-1" cx="49.48" cy="389.04" r="2.76"/><circle class="cls-1" cx="49.48" cy="373.11" r="5.17"/><circle class="cls-1" cx="54.82" cy="357.17" r="2.76"/><circle class="cls-1" cx="301.26" cy="325.29" r="3.66"/><circle class="cls-1" cx="306.6" cy="341.23" r="5.17"/><circle class="cls-1" cx="295.91" cy="389.04" r="2.76"/><circle class="cls-1" cx="295.91" cy="373.11" r="5.17"/><circle class="cls-1" cx="301.26" cy="357.17" r="2.76"/></svg>