<svg id="Layer_1" data-name="Layer 1" xmlns="http://www.w3.org/2000/svg" viewBox="0 0 146.25 426.28"><defs><style>.cls-1,.cls-2{fill:#eeb30f;}.cls-1{opacity:0.25;}.cls-2{opacity:0.37;}.cls-3{fill:#fff;}.cls-4{fill:#1d1d1b;}</style></defs><title>preambule_card_logo-dark</title><path class="cls-1" d="M74.75,246c42-88-13.48-96.1,25-143.66S133.8,34.2,122,21.19s-88.51,1.36-88.51,1.36c-4.41,59.92-5.18,79,.71,115.14S74.75,246,74.75,246Z"/><path class="cls-2" d="M106.56,51.3c34.75-11.92,24.7,34.91,18,58.38S67,133.43,75.32,164s-3,65.69-4.58,72.35S51,195.1,51,195.1L33.18,131.34,31.85,45.15S80.72,60.17,106.56,51.3Z"/><path class="cls-1" d="M81.11,238.69s37.16-49.58,36.89-73S68.93,118.74,81.4,75.51c6.83-23.7,15.2-34.7,15.2-43.67S81.89,19.32,75.64,18C62.23,15,33.38,17.91,33.3,34.75c-.12,23.07.22,43.56,1.86,59.93C38.72,130.26,43.49,158.72,81.11,238.69Z"/><path class="cls-3" d="M81,238.6q2.69-4,5.31-8c1.74-2.7,3.44-5.42,5.15-8.13,3.39-5.44,6.7-10.92,9.83-16.5q2.37-4.17,4.55-8.43c1.49-2.82,2.87-5.69,4.19-8.59,2.57-5.8,5-11.72,6.2-17.84a22.74,22.74,0,0,0,.26-9.1,30.17,30.17,0,0,0-3.43-8.65A121.3,121.3,0,0,0,102,137.73c-4-5-8-10-11.69-15.36-1.83-2.66-3.51-5.42-5.09-8.24a68.07,68.07,0,0,1-4-8.88,51.4,51.4,0,0,1-2.42-9.49l-.2-1.22-.11-1.22-.21-2.46v-3.7l.09-1.23.19-2.46c.09-.82.24-1.63.35-2.44a46.45,46.45,0,0,1,1-4.83c.79-3.18,1.78-6.23,2.77-9.32,2-6.14,4.44-12.17,7-18.08,1.23-3,2.53-5.89,3.6-8.83.27-.74.54-1.47.75-2.21a22.39,22.39,0,0,0,.59-2.2c.21-.73.25-1.46.39-2.19A18.89,18.89,0,0,0,95,31.28c-.15-2.57-2.15-4.81-4.63-6.42A36.13,36.13,0,0,0,82,21.07c-1.49-.48-3-.91-4.54-1.29s-3.06-.76-4.59-1a58.73,58.73,0,0,0-9.39-.64,53.78,53.78,0,0,0-18.54,3.17,22.08,22.08,0,0,0-7.84,5,12.85,12.85,0,0,0-3.62,8.45h-.3a14,14,0,0,1,.72-4.83,13.25,13.25,0,0,1,2.47-4.27A19.62,19.62,0,0,1,40,22.33a28.91,28.91,0,0,1,4.31-2.41A45.29,45.29,0,0,1,53.67,17a58.92,58.92,0,0,1,9.72-1.18,59.81,59.81,0,0,1,9.82.39c1.65.2,3.28.55,4.86.9s3.17.75,4.75,1.21a35.82,35.82,0,0,1,9.2,4,16.37,16.37,0,0,1,4,3.49A10,10,0,0,1,98.16,31a17.37,17.37,0,0,1-.06,2.72c-.15.84-.22,1.73-.45,2.54s-.4,1.66-.66,2.45-.52,1.58-.8,2.35c-1.14,3.09-2.44,6-3.74,9-2.6,5.86-5,11.73-7.15,17.75-1,3-2,6.06-2.88,9.09a43.21,43.21,0,0,0-1.07,4.57c-.13.78-.3,1.54-.4,2.32l-.24,2.33-.12,1.17,0,1.18-.06,2.34.11,2.35.06,1.18.14,1.17a48.93,48.93,0,0,0,2,9.23,65.82,65.82,0,0,0,3.58,8.81,81.18,81.18,0,0,0,4.8,8.27,178.44,178.44,0,0,0,11.59,15.32c2,2.48,4.11,4.94,6.1,7.48a84.89,84.89,0,0,1,5.67,7.89,31.89,31.89,0,0,1,4,9,19.47,19.47,0,0,1,.6,5,18.86,18.86,0,0,1-.12,2.5,20.09,20.09,0,0,1-.32,2.47,55.4,55.4,0,0,1-2.54,9.5c-1.1,3.07-2.32,6.08-3.71,9a183.91,183.91,0,0,1-9.14,17.08,287,287,0,0,1-22.06,31.67Z"/><path class="cls-3" d="M31.94,44.86c12.58,2.46,25.15,4.65,37.75,5.83s25.28,1.52,37-2c.82-.23,1.63-.45,2.45-.65l2.54-.45a25.34,25.34,0,0,1,5.24-.25,17.9,17.9,0,0,1,5.3,1.14c.42.17.83.4,1.24.61a6.79,6.79,0,0,1,1.2.69,12,12,0,0,1,2.11,1.77,16,16,0,0,1,3,4.38,24.23,24.23,0,0,1,1.56,4.85,44.72,44.72,0,0,1,.88,9.81,124,124,0,0,1-1.86,19.27q-1.6,9.54-3.83,19l-.27,1.18c-.09.39-.25.82-.37,1.24l-.4,1.25c-.16.41-.35.8-.52,1.21s-.35.8-.55,1.19l-.67,1.13a17,17,0,0,1-1.45,2.16,35.79,35.79,0,0,1-7.31,7.09c-5.36,4-11.17,7-16.72,10.06-2.78,1.53-5.5,3.1-8.08,4.77a43.8,43.8,0,0,0-7,5.51,19.11,19.11,0,0,0-4.55,6.74,15.81,15.81,0,0,0-.77,7.88,17.14,17.14,0,0,0,.37,2.08l.22,1.06.27,1.22c.36,1.62.73,3.25,1,4.88l.7,4.92c.14.81.18,1.64.24,2.46l.17,2.47c0,.82.13,1.64.14,2.46l0,2.47c0,1.64.06,3.28,0,4.91s-.11,3.27-.26,4.9l-.45,4.87A166.63,166.63,0,0,1,71,236.43l-.59-.13c.53-3.19,1.18-6.32,1.74-9.47s1.08-6.29,1.54-9.43c.9-6.3,1.56-12.6,1.85-18.89l.12-4.72c0-1.57,0-3.14-.06-4.7s-.1-3.13-.19-4.68l-.15-2.34c0-.78-.17-1.54-.25-2.32-.2-1.54-.31-3.09-.59-4.61l-.8-4.57-1.09-4.48-.57-2.4a22.82,22.82,0,0,1-.52-2.64,21.68,21.68,0,0,1,1.09-11,24.45,24.45,0,0,1,6.2-9c5.18-4.82,11.11-7.85,16.83-10.8s11.47-5.63,16.6-9a35.16,35.16,0,0,0,6.91-5.74,13.87,13.87,0,0,0,1.37-1.71l.64-.89c.19-.3.35-.63.53-.94s.36-.63.53-1l.4-1c.14-.35.29-.65.41-1l.37-1.14a163.13,163.13,0,0,0,5-18.42,84.87,84.87,0,0,0,1.94-18.89,38.66,38.66,0,0,0-1.34-9.22,22.43,22.43,0,0,0-1.71-4.16,12.58,12.58,0,0,0-2.71-3.27A10.19,10.19,0,0,0,121,52a14.16,14.16,0,0,0-4.13-.45,27.67,27.67,0,0,0-8.61,1.86l-2.31.77-1.22.39-1.22.33a44.56,44.56,0,0,1-4.93,1,66.15,66.15,0,0,1-9.9.78,119.41,119.41,0,0,1-19.5-1.41c-3.21-.46-6.4-1.05-9.56-1.71s-6.31-1.4-9.42-2.22a159.44,159.44,0,0,1-18.38-6Z"/><path class="cls-4" d="M66.35,411.54l.28-55.24-1.29-56.21s-.12-18.75-.63-28.12l-.37-7-.16-3.52-.25-2.87c-.45-3.77.57-7.6-.74-11.53-2.55-7.87-6.57-16.05-10.46-24.55s-8-17.3-11.43-26.43c-7.06-18.21-14-37.52-16.38-56.95a260,260,0,0,1-2.07-29.18c-.15-9.86.25-19,.42-28.43.59-18.8,1.52-17.68,3.44-36.55.95-9.43,4.24-25.32,5.56-28s5.6-1.16,5.67.22c.3,9.33,1.07,18.66,1.65,28l3.82,36L45,109c.66,9,1.64,18,3,26.85s3.17,17.62,5.43,26.26,5,17.14,8.08,25.58,6.6,16.85,10.3,25.48S79.2,230.77,82,240.9A76.86,76.86,0,0,1,84.58,257l.07,4.15-.05,3.52-.16,7c-.22,9.38-8.11,139.54-8.11,139.54Z"/><path class="cls-4" d="M29.88,29.69s1.27-13.47,3.81-14c4.29-1.25,41,.17,41,.17S36.51,17.78,44,22.3c3,2.63,18,4.18,18,4.18L36.68,28.1l-6.8,1.59"/><ellipse class="cls-4" cx="73.85" cy="411.06" rx="7.18" ry="57.4" transform="translate(-339.14 473.19) rotate(-88.37)"/></svg>